<?xml version="1.0" encoding="utf-8"?>
<!-- Generator: Adobe Illustrator 17.0.0, SVG Export Plug-In . SVG Version: 6.00 Build 0)  -->
<!DOCTYPE svg PUBLIC "-//W3C//DTD SVG 1.1//EN" "http://www.w3.org/Graphics/SVG/1.1/DTD/svg11.dtd">
<svg version="1.1" id="Capa_1" xmlns="http://www.w3.org/2000/svg" xmlns:xlink="http://www.w3.org/1999/xlink" x="0px" y="0px"
	 width="120px" height="120px" viewBox="0 0 120 120" enable-background="new 0 0 120 120" xml:space="preserve">
<g>
	<g>
		<circle fill="none" stroke="#AF2313" stroke-width="2" stroke-miterlimit="10" cx="18.33" cy="87.064" r="11.172"/>
		<circle fill="none" stroke="#AF2313" stroke-width="2" stroke-miterlimit="10" cx="18.33" cy="87.064" r="14.456"/>
		<g>
			<path fill="none" stroke="#AF2313" stroke-width="2" stroke-miterlimit="10" d="M87.82,37.683c0,0-43.237,26.703-52.681,30.63
				c-9.443,3.927-12.218,2.7-17.048,3.179c-4.831,0.478-6.768,0.671-6.768,0.671"/>
			<path fill="none" stroke="#AF2313" stroke-width="2" stroke-miterlimit="10" d="M92.538,45.101c0,0-42.533,27.815-50.098,34.7
				c-7.562,6.883-7.628,9.919-10.112,14.089c-2.483,4.169-3.478,5.842-3.478,5.842"/>
		</g>
		<g>
			<polygon fill="#AF2313" points="17.203,68.408 12.613,71.328 11.379,69.391 5.281,73.269 6.51,75.206 1.918,78.127 3.15,80.06 
				18.433,70.345 			"/>
			<polygon fill="#AF2313" points="19.458,105.719 24.051,102.798 25.282,104.735 31.383,100.858 30.15,98.923 34.743,96.002 
				33.514,94.065 18.228,103.781 			"/>
		</g>
		<g>
			<path fill="#AF2313" d="M71.357,31.264l1.942,3.052c0.034-0.021,0.06-0.047,0.09-0.069c3.584-2.277,8.331-1.22,10.61,2.363
				l7.89,12.409c2.275,3.581,1.217,8.334-2.366,10.611c-0.032,0.02-0.069,0.029-0.102,0.05l1.94,3.054l18.587-11.817L89.947,19.45
				L71.357,31.264z M96.206,37.562c1.154,1.819,0.618,4.227-1.199,5.382c-1.82,1.159-4.227,0.62-5.387-1.197
				c-1.154-1.819-0.616-4.228,1.201-5.384C92.641,35.209,95.049,35.744,96.206,37.562z"/>
			
				<rect x="82.951" y="33.562" transform="matrix(-0.5364 -0.844 0.844 -0.5364 127.2811 138.1877)" fill="#AF2313" width="37.285" height="1.148"/>
			
				<rect x="105.118" y="12.233" transform="matrix(0.8439 -0.5365 0.5365 0.8439 0.0941 62.0742)" fill="#AF2313" width="3.213" height="37.284"/>
			
				<rect x="85.079" y="32.211" transform="matrix(-0.5365 -0.8439 0.8439 -0.5365 131.7076 137.9013)" fill="#AF2313" width="37.287" height="1.145"/>
		</g>
	</g>
	<g>
		<circle fill="none" stroke="#AF2313" stroke-width="2" stroke-miterlimit="10" cx="101.672" cy="87.064" r="11.171"/>
		<path fill="none" stroke="#AF2313" stroke-width="2" stroke-miterlimit="10" d="M93.916,99.264
			c6.738,4.282,15.674,2.292,19.954-4.444c4.283-6.738,2.295-15.674-4.445-19.955C102.69,70.58,93.754,72.57,89.47,79.31
			C85.188,86.046,87.178,94.98,93.916,99.264z"/>
		<g>
			<path fill="none" stroke="#AF2313" stroke-width="2" stroke-miterlimit="10" d="M32.181,37.683c0,0,43.237,26.703,52.683,30.63
				c9.441,3.927,12.217,2.7,17.046,3.179c4.83,0.478,6.767,0.671,6.767,0.671"/>
			<path fill="none" stroke="#AF2313" stroke-width="2" stroke-miterlimit="10" d="M27.464,45.101c0,0,42.534,27.815,50.097,34.7
				c7.561,6.883,7.63,9.919,10.112,14.089c2.482,4.169,3.48,5.842,3.48,5.842"/>
		</g>
		<g>
			<polygon fill="#AF2313" points="102.8,68.408 107.39,71.328 108.62,69.391 114.72,73.269 113.49,75.206 118.082,78.127 
				116.852,80.06 101.569,70.345 			"/>
			<polygon fill="#AF2313" points="100.542,105.719 95.951,102.798 94.718,104.735 88.621,100.858 89.85,98.923 85.259,96.002 
				86.49,94.065 101.774,103.781 			"/>
		</g>
		<g>
			<path fill="#AF2313" d="M30.057,19.45L10.052,50.916l18.587,11.817l1.941-3.054c-0.035-0.021-0.07-0.031-0.104-0.05
				c-3.58-2.277-4.638-7.03-2.361-10.611l7.888-12.409c2.276-3.583,7.026-4.64,10.609-2.363c0.032,0.022,0.058,0.048,0.089,0.069
				l1.941-3.052L30.057,19.45z M29.181,36.363c1.816,1.155,2.355,3.565,1.197,5.384c-1.156,1.817-3.564,2.356-5.383,1.197
				c-1.82-1.155-2.355-3.563-1.197-5.382C24.953,35.744,27.363,35.209,29.181,36.363z"/>
			
				<rect x="-0.236" y="33.561" transform="matrix(0.5364 -0.844 0.844 0.5364 -20.2764 31.36)" fill="#AF2313" width="37.285" height="1.151"/>
			
				<rect x="11.669" y="12.233" transform="matrix(-0.8441 -0.5362 0.5362 -0.8441 7.9289 64.056)" fill="#AF2313" width="3.215" height="37.286"/>
			
				<rect x="-2.364" y="32.21" transform="matrix(0.5364 -0.8439 0.8439 0.5364 -20.1208 28.9349)" fill="#AF2313" width="37.284" height="1.146"/>
		</g>
	</g>
</g>
<g>
</g>
<g>
</g>
<g>
</g>
<g>
</g>
<g>
</g>
<g>
</g>
</svg>
