<?xml version="1.0" encoding="utf-8"?>
<!-- Generator: Adobe Illustrator 17.0.0, SVG Export Plug-In . SVG Version: 6.00 Build 0)  -->
<!DOCTYPE svg PUBLIC "-//W3C//DTD SVG 1.1//EN" "http://www.w3.org/Graphics/SVG/1.1/DTD/svg11.dtd">
<svg version="1.1" id="Capa_1" xmlns="http://www.w3.org/2000/svg" xmlns:xlink="http://www.w3.org/1999/xlink" x="0px" y="0px"
	 width="120px" height="120px" viewBox="0 0 120 120" enable-background="new 0 0 120 120" xml:space="preserve">
<g id="icono1">
	<path fill="#AF2313" d="M59.999,2.7c-31.645,0-57.3,25.654-57.3,57.3c0,31.647,25.654,57.301,57.3,57.301
		C91.646,117.302,117.3,91.648,117.3,60S91.646,2.7,59.999,2.7z M59.999,97.273c-20.583,0-37.271-16.688-37.271-37.272
		c0-20.585,16.688-37.271,37.271-37.271c20.585,0,37.272,16.687,37.272,37.271C97.271,80.585,80.583,97.273,59.999,97.273z"/>
	<path fill="#AF2313" d="M59.999,26.143c-18.698,0-33.857,15.159-33.857,33.859c0,18.697,15.159,33.857,33.857,33.857
		s33.858-15.16,33.858-33.857C93.857,41.302,78.697,26.143,59.999,26.143z M59.999,75.66c-8.648,0-15.659-7.013-15.659-15.659
		c0-8.648,7.011-15.66,15.659-15.66c8.649,0,15.659,7.012,15.659,15.66C75.658,68.648,68.648,75.66,59.999,75.66z"/>
	<g>
		<circle cx="60.143" cy="35.259" r="3.907"/>
		<circle cx="42.605" cy="42.404" r="3.906"/>
		<circle cx="35.257" cy="59.856" r="3.907"/>
		<path d="M39.641,74.632c1.524-1.523,3.998-1.523,5.524,0c1.526,1.525,1.526,4.001,0,5.525c-1.527,1.529-3.999,1.525-5.525,0
			C38.115,78.633,38.115,76.157,39.641,74.632z"/>
		<path d="M55.95,84.741c0-2.155,1.75-3.904,3.907-3.906c2.156,0,3.907,1.751,3.907,3.906c0,2.16-1.75,3.908-3.907,3.908
			C57.699,88.65,55.95,86.902,55.95,84.741z"/>
		<path d="M74.631,80.361c-1.526-1.527-1.523-3.998,0-5.524c1.527-1.526,4.002-1.526,5.523,0c1.529,1.526,1.526,3.997,0,5.524
			C78.632,81.886,76.158,81.886,74.631,80.361z"/>
		<path d="M84.741,64.05c-2.157,0-3.904-1.749-3.904-3.906c-0.001-2.157,1.747-3.906,3.904-3.906c2.16,0,3.907,1.75,3.907,3.906
			C88.648,62.301,86.901,64.05,84.741,64.05z"/>
		<circle cx="77.596" cy="42.606" r="3.907"/>
	</g>
</g>
<g>
</g>
<g>
</g>
<g>
</g>
<g>
</g>
<g>
</g>
<g>
</g>
</svg>
