<?xml version="1.0" encoding="utf-8"?>
<!-- Generator: Adobe Illustrator 17.0.0, SVG Export Plug-In . SVG Version: 6.00 Build 0)  -->
<!DOCTYPE svg PUBLIC "-//W3C//DTD SVG 1.1//EN" "http://www.w3.org/Graphics/SVG/1.1/DTD/svg11.dtd">
<svg version="1.1" id="Capa_1" xmlns="http://www.w3.org/2000/svg" xmlns:xlink="http://www.w3.org/1999/xlink" x="0px" y="0px"
	 width="120px" height="120px" viewBox="0 0 120 120" enable-background="new 0 0 120 120" xml:space="preserve">
<g id="icono2">
	<circle fill="#AF2313" cx="60.001" cy="60" r="19.424"/>
	<path fill="#AF2313" d="M60.001,1.961c-32.055,0-58.04,25.985-58.04,58.038c0,32.054,25.985,58.04,58.04,58.04
		c32.053,0,58.038-25.986,58.038-58.04C118.039,27.946,92.053,1.961,60.001,1.961z M60.001,12.241
		c20.11,0,37.308,12.438,44.347,30.038c-0.562,0.538-1.24,0.938-2.061,1.108c-4.385,0.915-22.251,1.191-26.033-0.625
		c-0.043-0.021-0.081-0.031-0.123-0.049c-4.225-3.945-9.894-6.362-16.13-6.362c-6.237,0-11.906,2.417-16.131,6.362
		c-0.042,0.018-0.08,0.028-0.123,0.049c-3.784,1.817-21.648,1.541-26.034,0.625c-0.819-0.17-1.498-0.57-2.061-1.108
		C22.691,24.679,39.887,12.241,60.001,12.241z M98.049,53.744c-0.354,0.839-12.526,2.181-13.063,1.895
		c-0.536-0.287-2.963-6.176-2.456-6.945c0.506-0.768,12.055-0.339,13.283,0.381C97.039,49.794,98.402,52.904,98.049,53.744z
		 M81.055,59.999c0,11.629-9.428,21.055-21.055,21.055c-11.629,0-21.056-9.426-21.056-21.055c0-11.628,9.427-21.054,21.056-21.054
		C71.628,38.945,81.055,48.371,81.055,59.999z M37.472,48.694c0.506,0.769-1.921,6.658-2.458,6.945
		c-0.536,0.286-12.709-1.056-13.063-1.895c-0.354-0.84,1.011-3.95,2.238-4.669C25.416,48.355,36.966,47.926,37.472,48.694z
		 M51.322,104.328c-0.202,0.967-0.724,1.737-1.413,2.352c-19.156-4.123-34.042-19.726-37.091-39.258
		c0.457-1.897,1.112-4.184,2.025-6.47c2.19-5.481,7.417-2.279,14.019-0.85c3.841,0.831,6.411,2.773,7.896,4.254
		c1.52,8.153,7.218,14.832,14.792,17.732C52.373,88.749,52.052,100.828,51.322,104.328z M62.992,97.852
		c-0.446,0.762-1.51,1.588-2.991,1.588c-1.483,0-2.546-0.826-2.993-1.588c-0.72-1.227-1.149-12.776-0.381-13.283
		c0.362-0.239,1.822-0.549,3.374-0.549c1.55,0,3.011,0.31,3.373,0.549C64.142,85.075,63.713,96.625,62.992,97.852z M70.091,106.68
		c-0.689-0.615-1.21-1.385-1.411-2.352c-0.73-3.5-1.053-15.579-0.23-22.24c7.576-2.9,13.273-9.578,14.793-17.732
		c1.484-1.481,4.056-3.423,7.895-4.254c6.604-1.43,11.83-4.631,14.021,0.85c0.913,2.286,1.567,4.572,2.024,6.47
		C104.133,86.954,89.246,102.557,70.091,106.68z"/>
</g>
<g>
</g>
<g>
</g>
<g>
</g>
<g>
</g>
<g>
</g>
<g>
</g>
</svg>
