<?xml version="1.0" encoding="utf-8"?>
<!-- Generator: Adobe Illustrator 17.0.0, SVG Export Plug-In . SVG Version: 6.00 Build 0)  -->
<!DOCTYPE svg PUBLIC "-//W3C//DTD SVG 1.1//EN" "http://www.w3.org/Graphics/SVG/1.1/DTD/svg11.dtd">
<svg version="1.1" id="Capa_1" xmlns="http://www.w3.org/2000/svg" xmlns:xlink="http://www.w3.org/1999/xlink" x="0px" y="0px"
	 width="120px" height="120px" viewBox="0 0 120 120" enable-background="new 0 0 120 120" xml:space="preserve">
<g>
	<g>
		<g>
			
				<rect x="2.305" y="56.249" transform="matrix(0.7575 -0.6529 0.6529 0.7575 -37.2546 17.5258)" fill="#AF2313" width="5.311" height="5.311"/>
			
				<rect x="10.351" y="49.314" transform="matrix(0.7574 -0.653 0.653 0.7574 -30.7785 21.1011)" fill="#AF2313" width="5.311" height="5.311"/>
			
				<rect x="18.397" y="42.378" transform="matrix(0.7574 -0.6529 0.6529 0.7574 -24.2956 24.6684)" fill="#AF2313" width="5.312" height="5.311"/>
			
				<rect x="23.113" y="80.387" transform="matrix(0.7574 -0.6529 0.6529 0.7574 -47.9696 36.9682)" fill="#AF2313" width="5.311" height="5.311"/>
			
				<rect x="31.158" y="73.451" transform="matrix(0.7574 -0.653 0.653 0.7574 -41.491 40.5431)" fill="#AF2313" width="5.311" height="5.311"/>
			
				<rect x="39.204" y="66.516" transform="matrix(0.7575 -0.6528 0.6528 0.7575 -35.0049 44.0975)" fill="#AF2313" width="5.312" height="5.311"/>
			
				<rect x="9.796" y="56.804" transform="matrix(0.7574 -0.6529 0.6529 0.7574 -35.8024 22.5541)" fill="#AF2313" width="5.312" height="5.312"/>
			
				<rect x="17.842" y="49.868" transform="matrix(0.7573 -0.653 0.653 0.7573 -29.326 26.1317)" fill="#AF2313" width="5.312" height="5.312"/>
			
				<rect x="25.888" y="42.932" transform="matrix(0.7574 -0.6529 0.6529 0.7574 -22.8418 29.6959)" fill="#AF2313" width="5.312" height="5.312"/>
			
				<rect x="9.241" y="64.296" transform="matrix(0.7575 -0.6528 0.6528 0.7575 -40.8226 24.0017)" fill="#AF2313" width="5.311" height="5.31"/>
			
				<rect x="17.287" y="57.36" transform="matrix(0.7574 -0.653 0.653 0.7574 -34.351 27.5851)" fill="#AF2313" width="5.312" height="5.311"/>
			
				<rect x="25.333" y="50.423" transform="matrix(0.7574 -0.653 0.653 0.7574 -27.8685 31.1528)" fill="#AF2313" width="5.311" height="5.312"/>
			
				<rect x="16.732" y="64.851" transform="matrix(0.7575 -0.6528 0.6528 0.7575 -39.3683 29.0263)" fill="#AF2313" width="5.311" height="5.31"/>
			
				<rect x="24.778" y="57.914" transform="matrix(0.7574 -0.653 0.653 0.7574 -32.8954 32.6101)" fill="#AF2313" width="5.311" height="5.311"/>
			
				<rect x="32.823" y="50.978" transform="matrix(0.7573 -0.653 0.653 0.7573 -26.4149 36.1839)" fill="#AF2313" width="5.312" height="5.311"/>
			
				<rect x="16.177" y="72.342" transform="matrix(0.7575 -0.6528 0.6528 0.7575 -44.3929 30.4794)" fill="#AF2313" width="5.311" height="5.311"/>
			
				<rect x="26.443" y="35.442" transform="matrix(0.7574 -0.653 0.653 0.7574 -17.8167 28.2431)" fill="#AF2313" width="5.311" height="5.311"/>
			
				<rect x="47.251" y="59.58" transform="matrix(0.7576 -0.6527 0.6527 0.7576 -28.5257 47.6625)" fill="#AF2313" width="5.31" height="5.311"/>
			
				<rect x="33.379" y="43.488" transform="matrix(0.7575 -0.6528 0.6528 0.7575 -21.3856 34.7137)" fill="#AF2313" width="5.311" height="5.311"/>
			
				<rect x="40.314" y="51.533" transform="matrix(0.7574 -0.653 0.653 0.7574 -24.9584 41.2044)" fill="#AF2313" width="5.311" height="5.312"/>
			
				<rect x="24.223" y="65.405" transform="matrix(0.7574 -0.6529 0.6529 0.7574 -37.9173 34.0573)" fill="#AF2313" width="5.312" height="5.311"/>
			
				<rect x="32.269" y="58.469" transform="matrix(0.7575 -0.6529 0.6529 0.7575 -31.4372 37.6272)" fill="#AF2313" width="5.311" height="5.312"/>
			
				<rect x="23.667" y="72.897" transform="matrix(0.7574 -0.653 0.653 0.7574 -42.9464 35.5174)" fill="#AF2313" width="5.311" height="5.311"/>
			
				<rect x="31.713" y="65.961" transform="matrix(0.7574 -0.6529 0.6529 0.7574 -36.4629 39.0827)" fill="#AF2313" width="5.312" height="5.311"/>
			
				<rect x="39.759" y="59.025" transform="matrix(0.7574 -0.653 0.653 0.7574 -29.9845 42.6595)" fill="#AF2313" width="5.311" height="5.311"/>
			
				<rect x="48.219" y="26.703" transform="matrix(0.7574 -0.6529 0.6529 0.7574 -24.5818 45.6111)" fill="#AF2313" width="1.746" height="58.369"/>
		</g>
	</g>
	<g>
		<g>
			
				<rect x="112.384" y="56.249" transform="matrix(-0.7574 -0.6529 0.6529 -0.7574 163.7136 178.6313)" fill="#AF2313" width="5.311" height="5.311"/>
			
				<rect x="104.338" y="49.314" transform="matrix(-0.7574 -0.653 0.653 -0.7574 154.0954 161.1934)" fill="#AF2313" width="5.311" height="5.311"/>
			
				<rect x="96.291" y="42.378" transform="matrix(-0.7574 -0.6529 0.6529 -0.7574 144.4879 143.7478)" fill="#AF2313" width="5.312" height="5.311"/>
			
				<rect x="91.576" y="80.388" transform="matrix(-0.7575 -0.6529 0.6529 -0.7575 111.391 207.4669)" fill="#AF2313" width="5.311" height="5.31"/>
			
				<rect x="83.53" y="73.451" transform="matrix(-0.7574 -0.653 0.653 -0.7574 101.7684 190.0252)" fill="#AF2313" width="5.311" height="5.311"/>
			
				<rect x="75.484" y="66.516" transform="matrix(-0.7575 -0.6528 0.6528 -0.7575 92.1742 172.5809)" fill="#AF2313" width="5.311" height="5.311"/>
			
				<rect x="104.892" y="56.804" transform="matrix(-0.7574 -0.6529 0.6529 -0.7574 150.1833 174.7176)" fill="#AF2313" width="5.312" height="5.313"/>
			
				<rect x="96.847" y="49.868" transform="matrix(-0.7573 -0.653 0.653 -0.7573 140.5585 157.2809)" fill="#AF2313" width="5.312" height="5.312"/>
			
				<rect x="88.8" y="42.932" transform="matrix(-0.7574 -0.6529 0.6529 -0.7574 130.9611 139.8322)" fill="#AF2313" width="5.312" height="5.312"/>
			
				<rect x="105.447" y="64.296" transform="matrix(-0.7575 -0.6528 0.6528 -0.7575 146.2846 188.2402)" fill="#AF2313" width="5.311" height="5.31"/>
			
				<rect x="97.401" y="57.359" transform="matrix(-0.7574 -0.653 0.653 -0.7574 136.645 170.8059)" fill="#AF2313" width="5.312" height="5.312"/>
			
				<rect x="89.356" y="50.423" transform="matrix(-0.7574 -0.653 0.653 -0.7574 127.0417 153.3611)" fill="#AF2313" width="5.311" height="5.312"/>
			
				<rect x="97.957" y="64.851" transform="matrix(-0.7575 -0.6528 0.6528 -0.7575 132.7577 184.325)" fill="#AF2313" width="5.311" height="5.31"/>
			
				<rect x="89.911" y="57.914" transform="matrix(-0.7574 -0.653 0.653 -0.7574 123.1228 166.8885)" fill="#AF2313" width="5.311" height="5.311"/>
			
				<rect x="81.865" y="50.978" transform="matrix(-0.7573 -0.653 0.653 -0.7573 113.5071 149.4473)" fill="#AF2313" width="5.312" height="5.311"/>
			
				<rect x="98.512" y="72.342" transform="matrix(-0.7575 -0.6528 0.6528 -0.7575 128.8449 197.8532)" fill="#AF2313" width="5.311" height="5.311"/>
			
				<rect x="88.246" y="35.442" transform="matrix(-0.7574 -0.653 0.653 -0.7574 134.8731 126.3076)" fill="#AF2313" width="5.311" height="5.311"/>
			
				<rect x="67.439" y="59.58" transform="matrix(-0.7576 -0.6527 0.6527 -0.7576 82.5727 155.1376)" fill="#AF2313" width="5.31" height="5.311"/>
			
				<rect x="81.31" y="43.488" transform="matrix(-0.7575 -0.6528 0.6528 -0.7575 117.4461 135.9126)" fill="#AF2313" width="5.311" height="5.311"/>
			
				<rect x="74.374" y="51.533" transform="matrix(-0.7574 -0.653 0.653 -0.7574 99.9887 145.529)" fill="#AF2313" width="5.311" height="5.312"/>
			
				<rect x="90.465" y="65.405" transform="matrix(-0.7575 -0.6529 0.6529 -0.7575 119.223 180.4112)" fill="#AF2313" width="5.312" height="5.311"/>
			
				<rect x="82.42" y="58.469" transform="matrix(-0.7575 -0.6529 0.6529 -0.7575 109.6091 162.9699)" fill="#AF2313" width="5.311" height="5.312"/>
			
				<rect x="91.021" y="72.897" transform="matrix(-0.7574 -0.6529 0.6529 -0.7574 115.2996 193.9413)" fill="#AF2313" width="5.312" height="5.311"/>
			
				<rect x="82.975" y="65.961" transform="matrix(-0.7574 -0.6529 0.6529 -0.7574 105.6911 176.4976)" fill="#AF2313" width="5.312" height="5.311"/>
			
				<rect x="74.929" y="59.025" transform="matrix(-0.7574 -0.653 0.653 -0.7574 96.0723 159.0564)" fill="#AF2313" width="5.311" height="5.311"/>
			
				<rect x="70.035" y="26.703" transform="matrix(-0.7575 -0.6529 0.6529 -0.7575 88.1331 144.514)" fill="#AF2313" width="1.746" height="58.369"/>
		</g>
	</g>
</g>
<g>
</g>
<g>
</g>
<g>
</g>
<g>
</g>
<g>
</g>
<g>
</g>
</svg>
