<?xml version="1.0" encoding="utf-8"?>
<!-- Generator: Adobe Illustrator 17.0.0, SVG Export Plug-In . SVG Version: 6.00 Build 0)  -->
<!DOCTYPE svg PUBLIC "-//W3C//DTD SVG 1.1//EN" "http://www.w3.org/Graphics/SVG/1.1/DTD/svg11.dtd">
<svg version="1.1" id="Capa_1" xmlns="http://www.w3.org/2000/svg" xmlns:xlink="http://www.w3.org/1999/xlink" x="0px" y="0px"
	 width="220px" height="30px" viewBox="0 0 220 30" enable-background="new 0 0 220 30" xml:space="preserve">
<rect x="5.158" y="5.446" transform="matrix(0.7071 -0.7071 0.7071 0.7071 -4.4981 10.452)" fill="#D24D57" width="10.419" height="10.419"/>
<rect x="12.526" y="12.814" transform="matrix(0.7071 -0.7071 0.7071 0.7071 -7.5501 17.8201)" fill="#EC644B" width="10.419" height="10.419"/>
<rect x="19.894" y="5.446" transform="matrix(0.7071 -0.7071 0.7071 0.7071 -0.1822 20.8716)" fill="#F64747" width="10.419" height="10.419"/>
<rect x="27.262" y="12.814" transform="matrix(0.7071 -0.7071 0.7071 0.7071 -3.2343 28.2397)" fill="#EF4836" width="10.419" height="10.419"/>
<rect x="34.615" y="5.446" transform="matrix(0.7071 -0.7071 0.7071 0.7071 4.1295 31.2815)" fill="#BC002D" width="10.419" height="10.419"/>
<g>
	<path fill="#F04937" d="M57.146,25.93V3.892h5.144V21.14l4.943-9.229h3.328l4.943,9.229V3.892h5.144V25.93h-8.019l-3.732-5.749
		l-3.732,5.749H57.146z"/>
	<path fill="#F04937" d="M100.012,4.573c0.505,0.454,0.757,1.001,0.757,1.639v17.398c0,0.673-0.252,1.228-0.757,1.665
		c-0.504,0.437-1.109,0.656-1.816,0.656H85.134v-4.69h3.328h7.11v-3.984h-7.11h-3.328v-4.691h3.328h7.11V8.583h-7.11h-3.328v-4.69
		h13.062C98.902,3.892,99.508,4.119,100.012,4.573z"/>
	<path fill="#F04937" d="M119.73,3.892c0.705,0,1.311,0.227,1.816,0.681c0.505,0.454,0.757,1.017,0.757,1.689V23.61
		c0,0.673-0.252,1.228-0.757,1.665c-0.504,0.437-1.109,0.656-1.816,0.656h-14.877V3.892H119.73z M117.108,8.632h-7.111V21.29h7.111
		V8.632z"/>
</g>
<g>
	<path fill="#F2F0ED" d="M131.407,8.702v4.035h6.304v4.639h-6.304v3.984h11.448v4.639h-16.541V3.961h16.541v4.741L131.407,8.702
		L131.407,8.702z"/>
	<path fill="#F2F0ED" d="M159.798,26h-12.961v-4.69h10.339v-4.135h-7.716c-0.706,0-1.32-0.227-1.841-0.681
		c-0.522-0.454-0.782-1.016-0.782-1.689V6.18c0-0.638,0.26-1.185,0.782-1.639c0.521-0.454,1.135-0.681,1.841-0.681h12.91v4.69
		h-10.288v3.883h7.716c0.706,0,1.311,0.227,1.816,0.68c0.504,0.454,0.757,1.018,0.757,1.69v8.825c0,0.673-0.253,1.236-0.757,1.689
		C161.111,25.771,160.505,26,159.798,26z"/>
	<path fill="#F2F0ED" d="M172.507,26h-5.195V3.961h5.195V26z"/>
	<path fill="#F2F0ED" d="M189.3,11.425V8.601h-7.414V21.31h7.414v-2.774h-3.178v-4.69h8.321v4.69v5.093
		c0,0.673-0.252,1.236-0.757,1.689c-0.504,0.454-1.109,0.681-1.816,0.681h-12.557c-0.705,0-1.311-0.227-1.816-0.681
		c-0.505-0.454-0.757-1.016-0.757-1.689V6.281c0-0.672,0.253-1.236,0.757-1.69c0.504-0.453,1.109-0.68,1.816-0.68h12.557
		c0.706,0,1.311,0.227,1.816,0.68c0.505,0.454,0.757,1.018,0.757,1.69v5.144H189.3z"/>
	<path fill="#F2F0ED" d="M217.288,26h-4.539l-9.884-14.927V26h-5.144V3.961h7.413l6.96,10.591V3.961h5.195L217.288,26L217.288,26z"
		/>
</g>
<g>
</g>
<g>
</g>
<g>
</g>
<g>
</g>
<g>
</g>
<g>
</g>
</svg>
