<?xml version="1.0" encoding="utf-8"?>
<!-- Generator: Adobe Illustrator 17.0.0, SVG Export Plug-In . SVG Version: 6.00 Build 0)  -->
<!DOCTYPE svg PUBLIC "-//W3C//DTD SVG 1.1//EN" "http://www.w3.org/Graphics/SVG/1.1/DTD/svg11.dtd">
<svg version="1.1" id="Capa_1" xmlns="http://www.w3.org/2000/svg" xmlns:xlink="http://www.w3.org/1999/xlink" x="0px" y="0px"
	 width="220px" height="30px" viewBox="0 0 220 30" enable-background="new 0 0 220 30" xml:space="preserve">
<rect x="5.159" y="5.946" transform="matrix(0.7071 -0.7071 0.7071 0.7071 -4.8528 10.6032)" fill="#D24D57" width="10.427" height="10.427"/>
<rect x="12.533" y="13.32" transform="matrix(0.7071 -0.7071 0.7071 0.7071 -7.9075 17.9769)" fill="#EC644B" width="10.427" height="10.427"/>
<rect x="19.906" y="5.946" transform="matrix(0.7071 -0.7071 0.7071 0.7071 -0.5338 21.0305)" fill="#F64747" width="10.427" height="10.427"/>
<rect x="27.279" y="13.32" transform="matrix(0.7071 -0.7071 0.7071 0.7071 -3.5884 28.4042)" fill="#EF4836" width="10.427" height="10.427"/>
<rect x="34.638" y="5.947" transform="matrix(0.7071 -0.7071 0.7071 0.7071 3.7805 31.4477)" fill="#BC002D" width="10.427" height="10.427"/>
<g>
	<path fill="#BC002D" d="M57.185,26.446V4.392h5.148v17.26l4.946-9.235h3.331l4.946,9.235V4.392h5.148v22.054h-8.025l-3.735-5.753
		l-3.735,5.753C65.209,26.446,57.185,26.446,57.185,26.446z"/>
	<path fill="#BC002D" d="M100.082,5.073c0.505,0.455,0.757,1.001,0.757,1.641v17.411c0,0.673-0.252,1.229-0.757,1.666
		c-0.504,0.437-1.11,0.656-1.817,0.656H85.194v-4.693h3.331h7.116v-3.987h-7.116h-3.331v-4.694h3.331h7.116V9.086h-7.116h-3.331
		V4.393h13.071C98.971,4.392,99.578,4.619,100.082,5.073z"/>
	<path fill="#BC002D" d="M119.814,4.392c0.706,0,1.312,0.227,1.817,0.682s0.757,1.018,0.757,1.69v17.36
		c0,0.673-0.252,1.229-0.757,1.666c-0.504,0.437-1.11,0.656-1.817,0.656h-14.888V4.392H119.814z M117.19,9.136h-7.116v12.667h7.116
		V9.136z"/>
</g>
<g>
	<path fill="#F2F0ED" d="M131.5,9.205v4.038h6.308v4.643H131.5v3.987h11.456v4.643h-16.553V4.461h16.553v4.745L131.5,9.205
		L131.5,9.205z"/>
	<path fill="#F2F0ED" d="M159.912,26.516h-12.97v-4.693h10.346v-4.138h-7.721c-0.707,0-1.321-0.227-1.842-0.682
		c-0.522-0.455-0.783-1.017-0.783-1.69V6.681c0-0.638,0.26-1.186,0.783-1.64c0.522-0.455,1.135-0.682,1.842-0.682h12.92v4.693
		h-10.295v3.886h7.721c0.707,0,1.312,0.227,1.818,0.681c0.504,0.455,0.757,1.019,0.757,1.691v8.831c0,0.673-0.253,1.237-0.757,1.69
		C161.226,26.286,160.619,26.516,159.912,26.516z"/>
	<path fill="#F2F0ED" d="M172.63,26.516h-5.198V4.461h5.198V26.516z"/>
	<path fill="#F2F0ED" d="M189.436,11.93V9.104h-7.419v12.718h7.419v-2.776h-3.18v-4.693h8.327v4.693v5.097
		c0,0.673-0.252,1.237-0.757,1.69c-0.504,0.455-1.11,0.682-1.817,0.682h-12.566c-0.706,0-1.312-0.227-1.817-0.682
		s-0.757-1.017-0.757-1.69V6.782c0-0.673,0.253-1.237,0.757-1.691s1.11-0.681,1.817-0.681h12.566c0.706,0,1.312,0.227,1.817,0.681
		c0.505,0.455,0.757,1.019,0.757,1.691v5.148C194.583,11.93,189.436,11.93,189.436,11.93z"/>
	<path fill="#F2F0ED" d="M217.444,26.516h-4.542l-9.891-14.938v14.938h-5.148V4.461h7.418l6.965,10.598V4.461h5.198V26.516
		L217.444,26.516z"/>
</g>
</svg>
